<svg xmlns="http://www.w3.org/2000/svg" version="1.0" preserveAspectRatio="xMidYMid meet" viewBox="185.78 185.14 226.41 231.36" height="25" width="25">
<metadata>
Created by potrace 1.10, written by Peter Selinger 2001-2011
</metadata>
<g transform="translate(0.000000,600.000000) scale(0.100000,-0.100000)" fill="#ffffff" stroke="none">
<path d="M3635 4138 c-3 -7 -6 -269 -7 -581 l-3 -569 -60 -51 c-33 -28 -79 -70 -103 -93 l-43 -42 3 -103 c4 -126 14 -134 86 -65 77 73 99 88 109 74 4 -7 10 -206 13 -443 l5 -430 135 0 135 0 3 572 2 573 100 86 c55 48 102 94 104 103 4 14 10 175 7 209 -1 16 -26 15 -44 -2 -51 -51 -140 -117 -152 -112 -13 4 -15 74 -17 443 l-3 438 -133 3 c-100 2 -134 -1 -137 -10z"></path>
<path d="M1931 3496 c-7 -8 -11 -49 -10 -105 1 -81 4 -93 22 -103 14 -7 159 -9 485 -7 327 3 466 1 469 -7 3 -9 -76 -105 -296 -354 -31 -36 -140 -162 -241 -280 -102 -118 -203 -235 -226 -260 -23 -25 -70 -79 -105 -120 -35 -41 -66 -77 -69 -80 -3 -3 -25 -29 -50 -59 -42 -51 -45 -60 -50 -125 -3 -39 -3 -91 0 -116 l5 -45 740 0 740 0 3 112 c3 107 2 112 -20 124 -17 9 -140 10 -523 5 -275 -3 -515 -9 -532 -12 -28 -5 -33 -3 -33 13 0 11 15 36 33 55 47 50 296 339 557 648 58 68 139 162 180 209 41 47 109 126 150 175 41 49 88 104 103 123 25 29 29 42 32 116 2 47 -1 87 -7 95 -16 19 -1341 18 -1357 -2z"></path>
</g>
</svg>