<svg xmlns="http://www.w3.org/2000/svg" version="1.0" preserveAspectRatio="xMidYMid meet" viewBox="81 56.9 143 229.2" height="15" width="15">  <g transform="translate(0.000000,341.000000) scale(0.100000,-0.100000)" fill="#00d5ff" stroke="none"> <path d="M1410 2760 l0 -80 -255 0 -255 0 0 -105 0 -105 255 0 255 0 0 -361 0 -360 -128 -187 c-200 -291 -385 -561 -430 -629 -40 -59 -42 -65 -42 -137 l0 -76 300 0 300 0 0 -85 0 -86 128 3 127 3 3 83 3 82 284 0 285 0 0 105 0 105 -285 0 -285 0 0 393 0 393 173 255 c96 140 219 321 275 403 l102 149 0 79 0 78 -275 0 -274 0 -3 78 -3 77 -127 3 -128 3 0 -81z m480 -298 c0 -8 -192 -297 -211 -316 -5 -6 -9 59 -9 157 l0 167 110 0 c61 0 110 -4 110 -8z m-480 -1337 l0 -195 -135 0 c-74 0 -135 3 -135 6 0 12 258 384 266 384 2 0 4 -88 4 -195z"></path> </g> </svg>